<mxfile host="app.diagrams.net" agent="Mozilla/5.0 (Windows NT 10.0; Win64; x64) AppleWebKit/537.36 (KHTML, like Gecko) Chrome/135.0.0.0 Safari/537.36" version="27.0.2">
  <diagram name="PÃ¡gina-1" id="vphZuvQrGqzvW-ptC24h">
    <mxGraphModel dx="703" dy="428" grid="0" gridSize="10" guides="1" tooltips="1" connect="1" arrows="1" fold="1" page="0" pageScale="1" pageWidth="827" pageHeight="1169" math="0" shadow="0">
      <root>
        <mxCell id="0" />
        <mxCell id="1" parent="0" />
        <mxCell id="8xMTRoJPWPFu385qPA7f-2" value="Calculadora" style="swimlane;fontStyle=1;align=center;verticalAlign=top;childLayout=stackLayout;horizontal=1;startSize=26;horizontalStack=0;resizeParent=1;resizeParentMax=0;resizeLast=0;collapsible=1;marginBottom=0;whiteSpace=wrap;html=1;" vertex="1" parent="1">
          <mxGeometry x="240" y="488" width="201" height="282" as="geometry" />
        </mxCell>
        <mxCell id="8xMTRoJPWPFu385qPA7f-3" value="-numeros: doubles&lt;div&gt;-simbolos: String&lt;/div&gt;" style="text;strokeColor=none;fillColor=none;align=left;verticalAlign=top;spacingLeft=4;spacingRight=4;overflow=hidden;rotatable=0;points=[[0,0.5],[1,0.5]];portConstraint=eastwest;whiteSpace=wrap;html=1;" vertex="1" parent="8xMTRoJPWPFu385qPA7f-2">
          <mxGeometry y="26" width="201" height="43" as="geometry" />
        </mxCell>
        <mxCell id="8xMTRoJPWPFu385qPA7f-4" value="" style="line;strokeWidth=1;fillColor=none;align=left;verticalAlign=middle;spacingTop=-1;spacingLeft=3;spacingRight=3;rotatable=0;labelPosition=right;points=[];portConstraint=eastwest;strokeColor=inherit;" vertex="1" parent="8xMTRoJPWPFu385qPA7f-2">
          <mxGeometry y="69" width="201" height="35" as="geometry" />
        </mxCell>
        <mxCell id="8xMTRoJPWPFu385qPA7f-5" value="+ sumar(): double&lt;div&gt;+restar(): double&lt;/div&gt;&lt;div&gt;+multiplicar(): double&lt;/div&gt;&lt;div&gt;+ dividir(): double&lt;/div&gt;&lt;div&gt;+residuo(): void&lt;/div&gt;&lt;div&gt;+seleccionarNumero: void&lt;/div&gt;&lt;div&gt;+resultadoDeLaOperacion():double&lt;/div&gt;&lt;div&gt;+eliminarNumero(): void&lt;/div&gt;" style="text;strokeColor=none;fillColor=none;align=left;verticalAlign=top;spacingLeft=4;spacingRight=4;overflow=hidden;rotatable=0;points=[[0,0.5],[1,0.5]];portConstraint=eastwest;whiteSpace=wrap;html=1;" vertex="1" parent="8xMTRoJPWPFu385qPA7f-2">
          <mxGeometry y="104" width="201" height="178" as="geometry" />
        </mxCell>
        <mxCell id="8xMTRoJPWPFu385qPA7f-6" value="Calculadora&lt;div&gt;&lt;br&gt;&lt;/div&gt;" style="text;html=1;align=center;verticalAlign=middle;resizable=0;points=[];autosize=1;strokeColor=none;fillColor=none;fontSize=16;" vertex="1" parent="1">
          <mxGeometry x="283" y="438" width="103" height="50" as="geometry" />
        </mxCell>
      </root>
    </mxGraphModel>
  </diagram>
</mxfile>
